<svg width="566" height="210" viewBox="0 0 566 210" fill="none" xmlns="http://www.w3.org/2000/svg">
<path d="M510.587 209.267C509.122 209.267 508.39 208.618 508.39 207.32C508.39 206.509 508.878 205.617 509.854 204.644C523.361 192.639 533.126 177.958 539.147 160.6C545.331 143.08 548.423 124.425 548.423 104.633C548.423 84.8423 545.331 66.2679 539.147 48.9101C533.126 31.39 523.361 16.6278 509.854 4.62334C508.878 3.65001 508.39 2.75779 508.39 1.94667C508.39 0.648892 509.122 0 510.587 0C511.4 0 512.133 0.243336 512.784 0.730006C518.479 4.78556 524.338 10.1389 530.359 16.79C536.543 23.2789 542.239 30.9845 547.446 39.9067C552.654 48.6667 556.885 58.4812 560.139 69.3501C563.394 80.219 565.022 91.9801 565.022 104.633C565.022 117.287 563.394 129.048 560.139 139.917C556.885 150.786 552.654 160.681 547.446 169.604C542.239 178.364 536.543 185.988 530.359 192.477C524.338 199.128 518.479 204.481 512.784 208.537C512.133 209.024 511.4 209.267 510.587 209.267Z" fill="white"/>
<path d="M453.51 209.267C452.859 209.267 452.126 209.024 451.313 208.537C445.617 204.481 439.677 199.128 433.493 192.477C427.472 185.988 421.858 178.364 416.65 169.604C411.443 160.681 407.212 150.786 403.957 139.917C400.702 129.048 399.075 117.287 399.075 104.633C399.075 91.9801 400.702 80.219 403.957 69.3501C407.212 58.4812 411.443 48.6667 416.65 39.9067C421.858 30.9845 427.472 23.2789 433.493 16.79C439.677 10.1389 445.617 4.78556 451.313 0.730006C452.126 0.243336 452.859 0 453.51 0C454.974 0 455.707 0.648892 455.707 1.94667C455.707 2.75779 455.218 3.65001 454.242 4.62334C440.898 16.6278 431.134 31.39 424.95 48.9101C418.766 66.2679 415.674 84.8423 415.674 104.633C415.674 124.425 418.766 143.08 424.95 160.6C431.134 177.958 440.898 192.639 454.242 204.644C455.218 205.617 455.707 206.509 455.707 207.32C455.707 208.618 454.974 209.267 453.51 209.267Z" fill="white"/>
<path d="M365.35 206.83H330.932C328.654 206.83 327.514 205.857 327.514 203.91C327.514 201.963 328.654 200.99 330.932 200.99H354.122C356.074 200.99 357.051 200.017 357.051 198.07V11.6763C357.051 9.72961 356.074 8.75628 354.122 8.75628H330.932C328.654 8.75628 327.514 7.78295 327.514 5.83628C327.514 3.88961 328.654 2.91628 330.932 2.91628H365.35C369.256 2.91628 371.209 4.86295 371.209 8.75628V200.99C371.209 204.883 369.256 206.83 365.35 206.83Z" fill="white"/>
<path d="M295.22 2.916C297.172 2.91605 298.148 3.88952 298.148 5.83592C298.148 7.78254 297.173 8.75579 295.22 8.75584C284.154 8.75584 278.621 17.5162 278.621 35.0361V69.5898C278.621 80.4586 277.156 88.4076 274.227 93.4365C271.46 98.4653 266.903 102.197 260.557 104.63C266.903 107.063 271.46 110.794 274.227 115.823C277.156 120.852 278.621 128.801 278.621 139.67V174.223C278.621 191.743 284.154 200.503 295.22 200.503C297.172 200.503 298.148 201.476 298.148 203.423C298.148 205.369 297.173 206.343 295.22 206.343C274.715 206.343 264.463 195.312 264.463 173.25V138.696C264.463 127.179 263.08 119.149 260.314 114.606C257.71 109.902 253.56 107.55 247.864 107.55C247.676 107.55 247.497 107.537 247.327 107.519C247.157 107.537 246.979 107.55 246.791 107.55C241.095 107.55 236.864 109.902 234.098 114.606C231.494 119.149 230.192 127.179 230.192 138.696V173.25C230.192 195.312 219.94 206.343 199.436 206.343C197.483 206.343 196.506 205.37 196.506 203.423C196.506 201.476 197.483 200.503 199.436 200.503C210.501 200.503 216.034 191.742 216.034 174.223V139.67C216.034 128.801 217.417 120.852 220.184 115.823C223.113 110.794 227.751 107.063 234.098 104.63C227.751 102.197 223.113 98.4654 220.184 93.4365C217.417 88.4076 216.034 80.4586 216.034 69.5898V35.0361C216.034 17.5164 210.501 8.75608 199.436 8.75584C197.483 8.75584 196.506 7.78259 196.506 5.83592C196.506 3.88947 197.483 2.916 199.436 2.916C219.94 2.91616 230.192 13.9477 230.192 36.0097V70.5635C230.192 81.9188 231.494 89.9489 234.098 94.6533C236.864 99.3576 241.095 101.71 246.791 101.71C246.979 101.71 247.157 101.721 247.327 101.739C247.497 101.721 247.676 101.71 247.864 101.71C253.56 101.71 257.71 99.3576 260.314 94.6533C263.08 89.9489 264.463 81.9188 264.463 70.5635V36.0097C264.463 13.9475 274.715 2.916 295.22 2.916Z" fill="white"/>
<path d="M127.466 209.267C126.002 209.267 125.269 208.618 125.269 207.32C125.269 206.509 125.758 205.617 126.734 204.644C140.241 192.639 150.005 177.958 156.026 160.6C162.21 143.08 165.302 124.425 165.302 104.633C165.302 84.8423 162.21 66.2679 156.026 48.9101C150.005 31.39 140.241 16.6278 126.734 4.62334C125.758 3.65001 125.269 2.75779 125.269 1.94667C125.269 0.648892 126.002 0 127.466 0C128.28 0 129.012 0.243336 129.663 0.730006C135.359 4.78556 141.217 10.1389 147.239 16.79C153.422 23.2789 159.118 30.9845 164.326 39.9067C169.533 48.6667 173.764 58.4812 177.019 69.3501C180.274 80.219 181.901 91.9801 181.901 104.633C181.901 117.287 180.274 129.048 177.019 139.917C173.764 150.786 169.533 160.681 164.326 169.604C159.118 178.364 153.422 185.988 147.239 192.477C141.217 199.128 135.359 204.481 129.663 208.537C129.012 209.024 128.28 209.267 127.466 209.267Z" fill="white"/>
<path d="M37.8358 206.83H3.41743C1.13914 206.83 0 205.857 0 203.91C0 201.963 1.13914 200.99 3.41743 200.99H26.6071C28.5599 200.99 29.5363 200.017 29.5363 198.07V11.6763C29.5363 9.72961 28.5599 8.75628 26.6071 8.75628H3.41743C1.13914 8.75628 0 7.78295 0 5.83628C0 3.88961 1.13914 2.91628 3.41743 2.91628H37.8358C41.7414 2.91628 43.6943 4.86295 43.6943 8.75628V200.99C43.6943 204.883 41.7414 206.83 37.8358 206.83Z" fill="white"/>
</svg>
