<?xml version="1.0" encoding="UTF-8"?>
<svg id="Layer_1" xmlns="http://www.w3.org/2000/svg" version="1.1" viewBox="0 0 566 210">
  <!-- Generator: Adobe Illustrator 29.6.1, SVG Export Plug-In . SVG Version: 2.1.1 Build 9)  -->
  <path d="M560.1,69.4c-3.3-10.9-7.5-20.7-12.7-29.4-5.2-8.9-10.9-16.6-17.1-23.1-6-6.7-11.9-12-17.6-16.1-.7-.5-1.4-.7-2.2-.7-1.5,0-2.2.6-2.2,1.9s.5,1.7,1.5,2.7c13.5,12,23.3,26.8,29.3,44.3,6.2,17.4,9.3,35.9,9.3,55.7s-3.1,38.4-9.3,56c-6,17.4-15.8,32-29.3,44-1,1-1.5,1.9-1.5,2.7,0,1.3.7,1.9,2.2,1.9s1.5-.2,2.2-.7c5.7-4.1,11.6-9.4,17.6-16.1,6.2-6.5,11.9-14.1,17.1-22.9,5.2-8.9,9.4-18.8,12.7-29.7,3.3-10.9,4.9-22.6,4.9-35.3s-1.6-24.4-4.9-35.3Z"/>
  <path d="M454.2,4.6c1-1,1.5-1.9,1.5-2.7,0-1.3-.7-1.9-2.2-1.9s-1.4.2-2.2.7c-5.7,4.1-11.6,9.4-17.8,16.1-6,6.5-11.6,14.2-16.8,23.1-5.2,8.8-9.4,18.6-12.7,29.4s-4.9,22.6-4.9,35.3,1.6,24.4,4.9,35.3,7.5,20.8,12.7,29.7c5.2,8.8,10.8,16.4,16.8,22.9,6.2,6.7,12.1,12,17.8,16.1.8.5,1.5.7,2.2.7,1.5,0,2.2-.6,2.2-1.9s-.5-1.7-1.5-2.7c-13.3-12-23.1-26.7-29.3-44-6.2-17.5-9.3-36.2-9.3-56s3.1-38.4,9.3-55.7c6.2-17.5,15.9-32.3,29.3-44.3Z"/>
  <path d="M365.4,2.9h-34.4c-2.3,0-3.4,1-3.4,2.9s1.1,2.9,3.4,2.9h23.2c2,0,2.9,1,2.9,2.9v186.4c0,1.9-1,2.9-2.9,2.9h-23.2c-2.3,0-3.4,1-3.4,2.9s1.1,2.9,3.4,2.9h34.4c3.9,0,5.9-1.9,5.9-5.8V8.8c0-3.9-2-5.8-5.9-5.8Z"/>
  <path d="M274.2,93.4c2.9-5,4.4-13,4.4-23.8v-34.6c0-17.5,5.5-26.3,16.6-26.3,2,0,2.9-1,2.9-2.9s-1-2.9-2.9-2.9c-20.5,0-30.8,11-30.8,33.1v34.6c0,11.4-1.4,19.4-4.1,24.1-2.6,4.7-6.8,7.1-12.5,7.1s-.4,0-.5,0c-.2,0-.3,0-.5,0-5.7,0-9.9-2.4-12.7-7.1-2.6-4.7-3.9-12.7-3.9-24.1v-34.6c0-22.1-10.3-33.1-30.8-33.1-2,0-2.9,1-2.9,2.9s1,2.9,2.9,2.9c11.1,0,16.6,8.8,16.6,26.3v34.6c0,10.9,1.4,18.8,4.2,23.8,2.9,5,7.6,8.8,13.9,11.2-6.3,2.4-11,6.2-13.9,11.2-2.8,5-4.2,13-4.2,23.8v34.6c0,17.5-5.5,26.3-16.6,26.3s-2.9,1-2.9,2.9,1,2.9,2.9,2.9c20.5,0,30.8-11,30.8-33.1v-34.6c0-11.5,1.3-19.5,3.9-24.1,2.8-4.7,7-7.1,12.7-7.1s.4,0,.5,0c.2,0,.3,0,.5,0,5.7,0,9.8,2.4,12.5,7.1,2.8,4.5,4.1,12.6,4.1,24.1v34.6c0,22.1,10.3,33.1,30.8,33.1s2.9-1,2.9-2.9-1-2.9-2.9-2.9c-11.1,0-16.6-8.8-16.6-26.3v-34.6c0-10.9-1.5-18.8-4.4-23.8-2.8-5-7.3-8.8-13.7-11.2,6.3-2.4,10.9-6.2,13.7-11.2Z"/>
  <path d="M164.3,39.9c-5.2-8.9-10.9-16.6-17.1-23.1-6-6.7-11.9-12-17.6-16.1-.7-.5-1.4-.7-2.2-.7-1.5,0-2.2.6-2.2,1.9s.5,1.7,1.5,2.7c13.5,12,23.3,26.8,29.3,44.3,6.2,17.4,9.3,35.9,9.3,55.7s-3.1,38.4-9.3,56c-6,17.4-15.8,32-29.3,44-1,1-1.5,1.9-1.5,2.7,0,1.3.7,1.9,2.2,1.9s1.5-.2,2.2-.7c5.7-4.1,11.6-9.4,17.6-16.1,6.2-6.5,11.9-14.1,17.1-22.9,5.2-8.9,9.4-18.8,12.7-29.7,3.3-10.9,4.9-22.6,4.9-35.3s-1.6-24.4-4.9-35.3c-3.3-10.9-7.5-20.7-12.7-29.4Z"/>
  <path d="M37.8,2.9H3.4c-2.3,0-3.4,1-3.4,2.9s1.1,2.9,3.4,2.9h23.2c2,0,2.9,1,2.9,2.9v186.4c0,1.9-1,2.9-2.9,2.9H3.4c-2.3,0-3.4,1-3.4,2.9s1.1,2.9,3.4,2.9h34.4c3.9,0,5.9-1.9,5.9-5.8V8.8c0-3.9-2-5.8-5.9-5.8Z"/>
</svg>